<?xml version="1.0" encoding="UTF-8"?>
<svg width="60px" height="60px" viewBox="0 0 60 60" version="1.1" xmlns="http://www.w3.org/2000/svg" xmlns:xlink="http://www.w3.org/1999/xlink">
    <!-- Generator: Sketch 51.3 (57544) - http://www.bohemiancoding.com/sketch -->
    <title>024 - Conversation</title>
    <desc>Created with Sketch.</desc>
    <defs></defs>
    <g id="Page-1" stroke="none" stroke-width="1" fill="none" fill-rule="evenodd">
        <g id="024---Conversation" transform="translate(0.000000, 1.000000)">
            <path d="M59,4 L59,30 C59.0002919,31.0609554 58.5789583,32.0785407 57.8287495,32.8287495 C57.0785407,33.5789583 56.0609554,34.0002919 55,34 L49,34 L11,16 L11,4 C10.9997081,2.93904459 11.4210417,1.92145934 12.1712505,1.17125054 C12.9214593,0.421041746 13.9390446,-0.000291883157 15,-8.8817842e-16 L55,-8.8817842e-16 C56.0609554,-0.000291883157 57.0785407,0.421041746 57.8287495,1.17125054 C58.5789583,1.92145934 59.0002919,2.93904459 59,4 Z" id="Shape" fill="#7FACFA" fill-rule="nonzero"></path>
            <path d="M56,4 L56,30 C56.0002919,31.0609554 55.5789583,32.0785407 54.8287495,32.8287495 C54.0785407,33.5789583 53.0609554,34.0002919 52,34 L49,34 L11,16 L11,4 C10.9997081,2.93904459 11.4210417,1.92145934 12.1712505,1.17125054 C12.9214593,0.421041746 13.9390446,-0.000291883157 15,-8.8817842e-16 L52,-8.8817842e-16 C53.0609554,-0.000291883157 54.0785407,0.421041746 54.8287495,1.17125054 C55.5789583,1.92145934 56.0002919,2.93904459 56,4 Z" id="Shape" fill="#A4C2F7" fill-rule="nonzero"></path>
            <path d="M49,20 L49,46 C49.0002919,47.0609554 48.5789583,48.0785407 47.8287495,48.8287495 C47.0785407,49.5789583 46.0609554,50.0002919 45,50 L22.85,50 C22.2943453,49.9963647 21.7493622,50.1525701 21.28,50.45 L12.05,57.7 C11.2270759,58.2071434 10.1595871,58.0558457 9.51,57.34 C9.17877931,56.9726013 8.99687266,56.4946505 9,56 L9,53 C9.00106343,52.204025 8.68533441,51.4403452 8.12249459,50.8775054 C7.55965477,50.3146656 6.795975,49.9989366 6,50 L5,50 C4.59646061,50.0012324 4.19512219,49.9405257 3.81,49.82 C2.13764647,49.2997241 0.998706484,47.7514142 1,46 L1,20 C0.999708117,18.9390446 1.42104175,17.9214593 2.17125054,17.1712505 C2.92145934,16.4210417 3.93904459,15.9997081 5,16 L45,16 C46.0609554,15.9997081 47.0785407,16.4210417 47.8287495,17.1712505 C48.5789583,17.9214593 49.0002919,18.9390446 49,20 Z" id="Shape" fill="#CAD9FC" fill-rule="nonzero"></path>
            <path d="M46,20 L46,46 C46.0002919,47.0609554 45.5789583,48.0785407 44.8287495,48.8287495 C44.0785407,49.5789583 43.0609554,50.0002919 42,50 L19.85,50 C19.2943453,49.9963647 18.7493622,50.1525701 18.28,50.45 L9.51,57.34 C9.17877931,56.9726013 8.99687266,56.4946505 9,56 L9,53 C9.00106343,52.204025 8.68533441,51.4403452 8.12249459,50.8775054 C7.55965477,50.3146656 6.795975,49.9989366 6,50 L5,50 C4.59646061,50.0012324 4.19512219,49.9405257 3.81,49.82 C2.13764647,49.2997241 0.998706484,47.7514142 1,46 L1,20 C0.999708117,18.9390446 1.42104175,17.9214593 2.17125054,17.1712505 C2.92145934,16.4210417 3.93904459,15.9997081 5,16 L42,16 C43.0609554,15.9997081 44.0785407,16.4210417 44.8287495,17.1712505 C45.5789583,17.9214593 46.0002919,18.9390446 46,20 Z" id="Shape" fill="#E8EDFC" fill-rule="nonzero"></path>
            <circle id="Oval" fill="#CAD9FC" fill-rule="nonzero" cx="25" cy="33" r="5"></circle>
            <circle id="Oval" fill="#CAD9FC" fill-rule="nonzero" cx="11" cy="33" r="5"></circle>
            <circle id="Oval" fill="#CAD9FC" fill-rule="nonzero" cx="39" cy="33" r="5"></circle>
            <path d="M11,4 L10.9999998,16 L14,16 L14,4 C13.9997081,2.93904459 14.4210417,1.92145934 15.1712505,1.17125054 C15.9214593,0.421041746 16.9390446,-0.000291883157 18,-1.51552629e-07 L15,0 C13.9390446,-0.000291883157 12.9214593,0.421041746 12.1712505,1.17125054 C11.4210417,1.92145934 10.9997081,2.93904459 11,4 Z" id="Shape" fill="#FFFFFF" fill-rule="nonzero"></path>
            <path d="M3.81,49.82 C4.19512219,49.9405257 4.59646061,50.0012324 5,50 L6,50 C6.795975,49.9989366 7.55965477,50.3146656 8.12249459,50.8775054 C8.68533441,51.4403452 9.00106343,52.204025 9,53 L9,56 C8.99687266,56.4946505 9.17877931,56.9726013 9.51,57.34 C10.1595871,58.0558457 11.2270759,58.2071434 12.05,57.7 L12.5094,57.3392 C12.1786424,56.9718798 11.9969758,56.4942829 12,56 L12,53 C12.0010634,52.204025 11.6853344,51.4403452 11.1224946,50.8775054 C10.5596548,50.3146656 9.795975,49.9989366 9,50 L8,50 C7.59646061,50.0012324 7.19512219,49.9405257 6.81,49.82 C5.13764647,49.2997241 3.99870648,47.7514142 4,46 L4,20 C3.99970812,18.9390446 4.42104175,17.9214593 5.17125054,17.1712505 C5.92145934,16.4210417 6.93904459,15.9997081 8,16 L5,16 C3.93904459,15.9997081 2.92145934,16.4210417 2.17125054,17.1712505 C1.42104175,17.9214593 0.999708117,18.9390446 1,20 L1,46 C0.998706484,47.7514142 2.13764647,49.2997241 3.81,49.82 Z" id="Shape" fill="#FFFFFF" fill-rule="nonzero"></path>
            <polygon id="Shape" fill="#FFFFFF" fill-rule="nonzero" points="2 20 2 33 2 46 0 46 0 33 0 20"></polygon>
            <path d="M1,25 C1.55162365,24.9984072 1.99840721,24.5516236 2,24 L2,20 L0,20 L0,24 C0.00159278994,24.5516236 0.448376352,24.9984072 1,25 Z" id="Shape" fill="#428DFF" fill-rule="nonzero"></path>
            <path d="M0,46 L2,46 L2,32 C2,31.4477153 1.55228475,31 1,31 C0.44771525,31 6.76353751e-17,31.4477153 0,32 L0,46 Z" id="Shape" fill="#428DFF" fill-rule="nonzero"></path>
            <path d="M2,28 C1.9960411,27.7352892 1.89249776,27.4817865 1.71,27.29 L1.56,27.17 C1.50424402,27.132172 1.44371601,27.101908 1.38,27.08 C1.32333992,27.0511067 1.26266403,27.0308814 1.2,27.02 C1.13387126,27.0087518 1.06704662,27.0020694 1,27 C0.735233018,27.0036835 0.481633787,27.1072663 0.29,27.29 C-0.0874522704,27.688085 -0.0874522704,28.311915 0.29,28.71 C0.385660077,28.8003288 0.497657849,28.8716001 0.62,28.92 C0.740222313,28.971241 0.869322743,28.99842 1,29 C1.26469083,28.9959431 1.51815919,28.8924138 1.71,28.71 C1.89241381,28.5181592 1.99594314,28.2646908 2,28 Z" id="Shape" fill="#428DFF" fill-rule="nonzero"></path>
            <path d="M1,20 C1,17.790861 2.790861,16 5,16 L45,16 C47.209139,16 49,17.790861 49,20 L49,46 C49,48.209139 47.209139,50 45,50 L22.85,50 C22.2943453,49.9963647 21.7493622,50.1525701 21.28,50.45 L12.05,57.7 C11.4331391,58.0790669 10.6596708,58.0955174 10.0272506,57.7430209 C9.39483048,57.3905245 9.00202557,56.72402 9,56 L9,53 C9,51.3431458 7.65685425,50 6,50 L5,50 C2.790861,50 1,48.209139 1,46" id="Shape" stroke="#428DFF" stroke-width="2" stroke-linecap="round" stroke-linejoin="round"></path>
            <path d="M49,34 L55,34 C56.0609554,34.0002919 57.0785407,33.5789583 57.8287495,32.8287495 C58.5789583,32.0785407 59.0002919,31.0609554 59,30 L59,4 C59.0002919,2.93904459 58.5789583,1.92145934 57.8287495,1.17125054 C57.0785407,0.421041746 56.0609554,-0.000291883157 55,-8.8817842e-16 L15,-8.8817842e-16 C13.9390446,-0.000291883157 12.9214593,0.421041746 12.1712505,1.17125054 C11.4210417,1.92145934 10.9997081,2.93904459 11,4 L11,16" id="Shape" stroke="#428DFF" stroke-width="2" stroke-linecap="round" stroke-linejoin="round"></path>
            <path d="M18,7 L52,7" id="Shape" stroke="#428DFF" stroke-width="2" stroke-linecap="round" stroke-linejoin="round"></path>
            <path d="M18,12 L52,12" id="Shape" stroke="#428DFF" stroke-width="2" stroke-linecap="round" stroke-linejoin="round"></path>
            <path d="M48,17 L52,17" id="Shape" stroke="#428DFF" stroke-width="2" stroke-linecap="round" stroke-linejoin="round"></path>
            <path d="M49,22 L52,22" id="Shape" stroke="#428DFF" stroke-width="2" stroke-linecap="round" stroke-linejoin="round"></path>
            <path d="M49,27 L52,27" id="Shape" stroke="#428DFF" stroke-width="2" stroke-linecap="round" stroke-linejoin="round"></path>
            <circle id="Oval" stroke="#428DFF" stroke-width="2" stroke-linecap="round" stroke-linejoin="round" cx="25" cy="33" r="5"></circle>
            <circle id="Oval" stroke="#428DFF" stroke-width="2" stroke-linecap="round" stroke-linejoin="round" cx="11" cy="33" r="5"></circle>
            <circle id="Oval" stroke="#428DFF" stroke-width="2" stroke-linecap="round" stroke-linejoin="round" cx="39" cy="33" r="5"></circle>
        </g>
    </g>
</svg>