<?xml version="1.0" encoding="UTF-8"?>
<svg xmlns="http://www.w3.org/2000/svg" xmlns:xlink="http://www.w3.org/1999/xlink" width="60px" height="60px" viewBox="0 0 60 60" version="1.1">
    <!-- Generator: Sketch 49.3 (51167) - http://www.bohemiancoding.com/sketch -->
    <title>016 - Mobile Pay </title>
    <desc>Created with Sketch.</desc>
    <defs>
        <linearGradient x1="-6.42857143%" y1="5.11363636%" x2="106.428571%" y2="94.8863636%" id="linearGradient-1">
            <stop stop-color="#D4E1F4" offset="0%"/>
            <stop stop-color="#D4E1F4" offset="17.173%"/>
            <stop stop-color="#D4E1F4" offset="20%"/>
            <stop stop-color="#DAE4F4" offset="20.014%"/>
            <stop stop-color="#EBEBF4" offset="20.069%"/>
            <stop stop-color="#F6F1F4" offset="20.136%"/>
            <stop stop-color="#FDF4F4" offset="20.231%"/>
            <stop stop-color="#FFF5F4" offset="20.495%"/>
            <stop stop-color="#FFF5F4" offset="25.222%"/>
            <stop stop-color="#FFF5F4" offset="26%"/>
            <stop stop-color="#D4E1F4" offset="26%"/>
            <stop stop-color="#D4E1F4" offset="39.739%"/>
            <stop stop-color="#D4E1F4" offset="42%"/>
            <stop stop-color="#DAE4F4" offset="42.014%"/>
            <stop stop-color="#EBEBF4" offset="42.069%"/>
            <stop stop-color="#F6F1F4" offset="42.136%"/>
            <stop stop-color="#FDF4F4" offset="42.231%"/>
            <stop stop-color="#FFF5F4" offset="42.495%"/>
            <stop stop-color="#FFF5F4" offset="48.939%"/>
            <stop stop-color="#FFF5F4" offset="50%"/>
            <stop stop-color="#F9F2F4" offset="50.003%"/>
            <stop stop-color="#E8EBF4" offset="50.014%"/>
            <stop stop-color="#DDE5F4" offset="50.028%"/>
            <stop stop-color="#D6E2F4" offset="50.047%"/>
            <stop stop-color="#D4E1F4" offset="50.1%"/>
            <stop stop-color="#D4E1F4" offset="70.622%"/>
            <stop stop-color="#D4E1F4" offset="74%"/>
            <stop stop-color="#FFF5F4" offset="74.1%"/>
            <stop stop-color="#FFF5F4" offset="83.459%"/>
            <stop stop-color="#FFF5F4" offset="85%"/>
            <stop stop-color="#D4E1F4" offset="85.1%"/>
        </linearGradient>
    </defs>
    <g id="Page-1" stroke="none" stroke-width="1" fill="none" fill-rule="evenodd">
        <g id="016---Mobile-Pay-" fill-rule="nonzero">
            <g id="Colour" transform="translate(1.000000, 1.000000)">
                <rect id="Rectangle-path" fill="#A4C2F7" x="0" y="0" width="38" height="58" rx="4"/>
                <rect id="Rectangle-path" fill="#E3E7F2" x="0" y="0" width="35" height="58" rx="4"/>
                <rect id="Rectangle-path" fill="#A4C2F7" x="0" y="7" width="38" height="44"/>
                <rect id="Rectangle-path" fill="url(#linearGradient-1)" x="0" y="7" width="35" height="44"/>
                <path d="M19,13.01038 C26.1596919,16.6602624 34.5505436,17.025082 42,14.01038 C55,9.01038 58,9.01038 58,9.01038 L58,37.01038 C58,37.01038 55,37.01038 42,42.01038 C34.5505436,45.025082 26.1596919,44.6602624 19,41.01038" id="Shape" fill="#E3E7F2"/>
                <path d="M19,17.02038 C26.1596919,20.6702624 34.5505436,21.035082 42,18.02038 C47.76,15.80038 51.56,14.57038 54,13.88038 L54,19.01038 C51.2385763,19.01038 49,21.2489563 49,24.01038 C49,26.7718037 51.2385763,29.01038 54,29.01038 L54,33.87038 C51.56,34.56038 47.76,35.79038 42,38.01038 C34.5505436,41.025082 26.1596919,40.6602624 19,37.01038 L19,17.02038 Z" id="Shape" fill="#E3E7F2"/>
                <circle id="Oval" fill="#E3E7F2" cx="32.5" cy="29.51038" r="5.5"/>
                <path d="M58,9.01 L58,37.01 C58,37.01 55,37.01 42,42.01 C38.1573768,43.5100215 34.0394292,44.1747564 29.92,43.96 C33.0309692,43.7959636 36.0959907,43.1377266 39,42.01 C52,37.01 55,37.01 55,37.01 L55,9.61 C55.976579,9.30686677 56.9819528,9.10579201 58,9.01 Z" id="Shape" fill="#A4C2F7"/>
            </g>
            <g id="Whites" transform="translate(1.000000, 1.000000)" fill="#FFFFFF">
                <path d="M2.93,54.0000001 C2.92971077,55.0609547 3.35104525,56.0785384 4.10125347,56.8287467 C4.85146169,57.5789549 5.8690454,58.0002894 6.93,58.0000003 L4,58.0000001 C2.9390454,58.0002894 1.92146169,57.5789549 1.17125347,56.8287467 C0.421045253,56.0785384 -0.000289228367,55.0609547 1.81630413e-16,54.0000001 L1.81630413e-16,3.99999986 C-0.000299847672,2.939042 0.421031224,1.92145212 1.17124175,1.17124159 C1.92145227,0.421031066 2.93904215,-0.000300007437 4,-1.59763748e-07 L6.93,-3.19698007e-07 C5.86904215,-0.000300007437 4.85145227,0.421031066 4.10124175,1.17124159 C3.35103122,1.92145212 2.92970015,2.939042 2.93,3.99999986 L2.93,54.0000001 Z" id="Shape"/>
            </g>
            <g id="Outline">
                <polygon id="Shape" fill="#FFFFFF" points="2 8 2 21 2 55 0 55 0 21 0 8"/>
                <path d="M1,17 C1.26470163,16.995996 1.51818849,16.8924591 1.71,16.71 C2.09672008,16.3156867 2.09672008,15.6843933 1.71,15.29008 L1.5601,15.16996 C1.50432178,15.1319755 1.44372787,15.1015979 1.37992,15.07963 C1.3231789,15.0508318 1.26242959,15.0307304 1.19971,15.02 C1.13367967,15.0087447 1.06695098,15.0020622 1,15 C0.735233018,15.0036835 0.481633787,15.1072663 0.29,15.29 C-0.0875531162,15.6880448 -0.0875531162,16.3119552 0.29,16.71 C0.385532731,16.8002924 0.497389252,16.8715624 0.61959,16.92 C0.739939045,16.9712951 0.869184251,16.9984753 1,17 Z" id="Shape" fill="#428DFF"/>
                <path d="M21,3 L19,3 C18.4477153,3 18,3.44771525 18,4 C18,4.55228475 18.4477153,5 19,5 L21,5 C21.5522847,5 22,4.55228475 22,4 C22,3.44771525 21.5522847,3 21,3 Z" id="Shape" fill="#428DFF"/>
                <path d="M21,55 L19,55 C18.4477153,55 18,55.4477153 18,56 C18,56.5522847 18.4477153,57 19,57 L21,57 C21.5522847,57 22,56.5522847 22,56 C22,55.4477153 21.5522847,55 21,55 Z" id="Shape" fill="#428DFF"/>
                <path d="M34.5498,3.16992 C34.4988117,3.13020752 34.4413188,3.09964414 34.37988,3.07959 C34.3201284,3.04934985 34.2557811,3.02921409 34.18945,3.02 C34.0646337,2.98971895 33.9343863,2.98971895 33.80957,3.02 C33.7435528,3.02921033 33.6795284,3.04934194 33.62012,3.07957 C33.556155,3.10152914 33.495398,3.13190596 33.43945,3.1699 L33.29,3.29 C33.1070799,3.48151305 33.0034659,3.73518877 33,4 C32.9963457,4.13117147 33.0237868,4.26134567 33.08008,4.37988 C33.128442,4.50226531 33.199717,4.61429614 33.29008,4.70996 C33.3373323,4.7529223 33.3872336,4.79287746 33.43949,4.82959 C33.495438,4.86758404 33.556195,4.89796086 33.62016,4.91992 C33.67963,4.95009383 33.7436178,4.97037943 33.80961,4.97998 C33.8724736,4.99147334 33.9361207,4.99816599 34,5 C34.0635676,4.99817417 34.1269024,4.991488 34.18945,4.98 C34.2557552,4.97040215 34.320066,4.95011907 34.37988,4.91994 C34.4413188,4.89988586 34.4988117,4.86932248 34.5498,4.82961 C34.6072595,4.7954874 34.660957,4.75539531 34.71,4.71 C34.800363,4.61433614 34.871638,4.50230531 34.92,4.37992 C34.9712456,4.25972721 34.9984251,4.13065198 35,4 C34.9960862,3.73527995 34.8925364,3.4817615 34.71,3.29 C34.66016,3.25 34.60938,3.21 34.5498,3.16992 Z" id="Shape" fill="#428DFF"/>
                <path d="M31.5498,3.16992 C31.4988117,3.13020752 31.4413188,3.09964414 31.37988,3.07959 C31.3201284,3.04934985 31.2557811,3.02921409 31.18945,3.02 C30.8633744,2.95425997 30.5259964,3.05553978 30.29004,3.29 C30.2445289,3.33887826 30.2042687,3.39239423 30.16992,3.44967 C30.1302715,3.50062331 30.0998644,3.55813413 30.08008,3.61959 C30.0496759,3.67935182 30.029224,3.74367311 30.01953,3.81002 C30.0081736,3.87275438 30.0016445,3.93626723 30,4 C30.0016055,4.13064384 30.028812,4.25970519 30.08008,4.37988 C30.1307809,4.50105812 30.2018016,4.61268902 30.29008,4.70996 C30.4806859,4.89423022 30.7348916,4.99808676 31,5 C31.0635676,4.99817417 31.1269024,4.991488 31.18945,4.98 C31.2557552,4.97040215 31.320066,4.95011907 31.37988,4.91994 C31.4413188,4.89988586 31.4988117,4.86932248 31.5498,4.82961 C31.60938,4.79 31.66016,4.75 31.71,4.71 C31.800363,4.61433614 31.871638,4.50230531 31.92,4.37992 C31.9712456,4.25972721 31.9984251,4.13065198 32,4 C31.9960862,3.73527995 31.8925364,3.4817615 31.71,3.29 C31.66016,3.25 31.60938,3.21 31.5498,3.16992 Z" id="Shape" fill="#428DFF"/>
                <path d="M59,9.01025 C58.67383,9.01025 55.44434,9.15234 42.64063,14.07666 C41.74475,14.42139 40.86505,14.70575 40,14.94751 L40,5 C39.9967598,2.23991948 37.7600805,0.00324014244 35,0 L5,0 C2.23991947,0.00324014244 0.00324014244,2.23991948 0,5 L0,12 C6.76353751e-17,12.5522847 0.44771525,13 0.999999999,13 C1.55228475,13 2,12.5522847 2,12 L2,9 L38,9 L38,15.432 C32.2640949,16.6200321 26.2974107,15.9105933 21,13.4107 L21,12.01025 C21,11.4579653 20.5522847,11.01025 20,11.01025 C19.4477152,11.01025 19,11.4579653 19,12.01025 L19,44.01025 C19,44.5625347 19.4477152,45.01025 20,45.01025 C20.5522847,45.01025 21,44.5625347 21,44.01025 L21,43.63361 C24.6060841,45.2174847 28.503811,46.028888 32.44238,46.01561 C34.3077817,46.0121085 36.1686494,45.8317413 38,45.47693 L38,51 L2,51 L2,20 C2,19.4477153 1.55228475,19 0.999999999,19 C0.44771525,19 6.76353751e-17,19.4477153 0,20 L0,55 C0.00324014244,57.7600805 2.23991947,59.9967599 5,60 L35,60 C37.7600805,59.9967599 39.9967598,57.7600805 40,55 L40,45.02173 C41.1388384,44.724747 42.26035,44.3649023 43.35938,43.94385 C55.78613,39.16406 58.89063,39.01416 59,39.01025 C59.2652376,39.010319 59.5196316,38.9049843 59.7071829,38.717433 C59.8947343,38.5298816 60.000069,38.2754876 60,38.01025 L60,10.01025 C60.000069,9.74501237 59.8947343,9.49061837 59.7071829,9.30306703 C59.5196316,9.1155157 59.2652376,9.01018101 59,9.01025 Z M2,7 L2,5 C2.00180771,3.34389511 3.34389511,2.00180771 5,2 L35,2 C36.6561049,2.00180771 37.9981923,3.34389511 38,5 L38,7 L2,7 Z M35,58 L5,58 C3.34389511,57.9981923 2.00180771,56.6561049 2,55 L2,53 L38,53 L38,55 C37.9981923,56.6561049 36.6561049,57.9981923 35,58 Z M54,19.10059 C51.1138628,19.585249 48.9999796,22.0837072 48.9999796,25.010255 C48.9999796,27.9368028 51.1138628,30.435261 54,30.91992 L54,34.12092 C50.94769,35.01875 47.13751,36.34407 42.64063,38.0771 C35.6441622,40.8505766 27.8125636,40.6094146 21,37.41071 L21,19.64386 C24.6058084,21.2275291 28.5031754,22.0389263 32.44141,22.02586 C36.1774732,22.0151161 39.8792348,21.3125103 43.35941,19.95359 C47.52789,18.34692 51.09753,17.09326 54,16.21588 L54,19.10059 Z M58,37.12744 C56.28223,37.42334 52.043,38.46094 42.64063,42.07666 C35.644293,44.8506772 27.8125298,44.6096693 21,41.41071 L21,39.63361 C24.6058099,41.2172743 28.503176,42.0286713 32.44141,42.01561 C36.1774727,42.004861 39.8792334,41.3022554 43.35941,39.94334 C48.15921,38.09373 52.16702,36.71043 55.27249,35.83299 C55.29343,35.82707 55.30795,35.8115 55.32816,35.80436 C55.3917785,35.7797446 55.4526029,35.7484424 55.50961,35.71098 C55.7342521,35.5922399 55.8946213,35.379937 55.94742,35.13139 C55.9678655,35.0666006 55.9813483,34.9998169 55.98764,34.93217 C55.98904,34.91069 56.00003,34.89244 56.00003,34.87059 L56.00003,30.01025 C56.000099,29.7450124 55.8947643,29.4906184 55.707213,29.303067 C55.5196616,29.1155157 55.2652676,29.010181 55.00003,29.01025 C52.790891,29.01025 51.00003,27.219389 51.00003,25.01025 C51.00003,22.801111 52.790891,21.01025 55.00003,21.01025 C55.2652676,21.010319 55.5196616,20.9049843 55.707213,20.717433 C55.8947643,20.5298816 56.000099,20.2754876 56.00003,20.01025 L56.00003,14.88037 C55.9942231,14.833884 55.9849404,14.7878985 55.97226,14.7428 C55.9720432,14.6978107 55.9685943,14.652895 55.96194,14.6084 C55.95621,14.58813 55.94119,14.57422 55.93436,14.55463 C55.9093185,14.489135 55.8772051,14.4265681 55.83859,14.36804 C55.7193177,14.1443691 55.5071532,13.9849684 55.25912,13.93268 C55.1951284,13.9126521 55.1292215,13.8993568 55.06247,13.89301 C55.04068,13.8916 55.02219,13.88037 55.00003,13.88037 C54.9541887,13.8861449 54.9088381,13.8953067 54.86435,13.90778 C54.8185701,13.9078605 54.7728565,13.9112662 54.72757,13.91797 C51.56351,14.81297 47.49612,16.21533 42.64066,18.0874 C35.6441615,20.8607272 27.8126244,20.6195927 21,17.42108 L21,15.63391 C28.1140372,18.712658 36.1627389,18.8242271 43.35938,15.94385 C52.19038,12.54685 56.31445,11.48828 58,11.15869 L58,37.12744 Z" id="Shape" fill="#428DFF"/>
                <path d="M33.5,24.01025 C29.9101491,24.01025 27,26.9203991 27,30.51025 C27,34.1001009 29.9101491,37.01025 33.5,37.01025 C37.0898509,37.01025 40,34.1001009 40,30.51025 C39.9958505,26.9221193 37.0881307,24.0143995 33.5,24.01025 Z M33.5,35.01025 C31.0147186,35.01025 29,32.9955314 29,30.51025 C29,28.0249686 31.0147186,26.01025 33.5,26.01025 C35.9852814,26.01025 38,28.0249686 38,30.51025 C37.9972939,32.9944096 35.9841596,35.0075439 33.5,35.01025 Z" id="Shape" fill="#428DFF"/>
                <path d="M16,13 L7,13 C6.44771525,13 6,13.4477153 6,14 C6,14.5522847 6.44771525,15 7,15 L16,15 C16.5522847,15 17,14.5522847 17,14 C17,13.4477153 16.5522847,13 16,13 Z" id="Shape" fill="#428DFF"/>
                <path d="M16,17 L10,17 C9.44771525,17 9,17.4477153 9,18 C9,18.5522847 9.44771525,19 10,19 L16,19 C16.5522847,19 17,18.5522847 17,18 C17,17.4477153 16.5522847,17 16,17 Z" id="Shape" fill="#428DFF"/>
                <path d="M16,21 L13,21 C12.4477153,21 12,21.4477153 12,22 C12,22.5522847 12.4477153,23 13,23 L16,23 C16.5522847,23 17,22.5522847 17,22 C17,21.4477153 16.5522847,21 16,21 Z" id="Shape" fill="#428DFF"/>
            </g>
        </g>
    </g>
</svg>
